<?xml version="1.0" standalone="no"?>
<svg id="Logopulse" width="83" height="81" viewBox="0 0 83 81" fill="none" xmlns="http://www.w3.org/2000/svg" style="max-width: 100%; max-height: 100%;">
<circle cx="41.0477" cy="40.0718" r="3.41613" fill="#798AA8" stroke-dasharray="0,0,0,20.916744232177734"><animate attributeType="XML" attributeName="stroke-dasharray" repeatCount="1" dur="2.5s" values="0,0,0,20.916744232177734; 
          0,10.458372116088867,10.458372116088867,0; 
          20.916744232177734,0,0,0" keyTimes="0; 0.5; 1" fill="freeze"></animate></circle>
<path d="M79.9266 39.0957C79.9266 59.9253 62.7794 78.1373 41.8612 78.1373C20.7169 78.1373 2.16897 61.3301 2.16897 40.7224C2.16897 19.957 19.6872 2.16897 40.6682 2.16897C61.8188 2.16897 79.9266 18.494 79.9266 39.0957Z" stroke="#798AA8" stroke-width="4.33794" stroke-dasharray="0,0,0,240.94454956054688"><animate attributeType="XML" attributeName="stroke-dasharray" repeatCount="1" dur="2.5s" values="0,0,0,240.94454956054688; 
          0,120.47227478027344,120.47227478027344,0; 
          240.94454956054688,0,0,0" keyTimes="0; 0.5; 1" fill="freeze"></animate></path>
<path d="M54.7333 9.02349C63.206 10.7804 70.308 15.7409 74.0532 24.3865C76.1854 30.6743 76.4175 37.2798 74.0337 43.8811C71.6438 50.4994 66.5678 57.2674 57.821 63.7508C49.495 68.4035 40.009 70.9904 31.3794 70.2286C22.8162 69.4727 15.0512 65.4288 9.88794 56.6528C6.52245 49.4946 6.03104 41.5861 8.74076 34.0154C11.4559 26.4295 17.4346 19.0541 27.2249 13.1189C36.2994 8.74457 46.2113 7.25634 54.7333 9.02349Z" stroke="#798AA8" stroke-width="3.7957" stroke-dasharray="0,0,0,205.72354125976562"><animate attributeType="XML" attributeName="stroke-dasharray" repeatCount="1" dur="2.5s" values="0,0,0,205.72354125976562; 
          0,102.86177062988281,102.86177062988281,0; 
          205.72354125976562,0,0,0" keyTimes="0; 0.5; 1" fill="freeze"></animate></path>
<path d="M52.3517 14.4779C61.121 14.4735 68.5107 17.3962 71.6481 23.9704C74.178 34.2046 70.2212 46.301 53.6217 57.49C48.0501 61.2455 39.0122 64.0816 30.4442 64.1733C21.8724 64.2651 14.4363 61.6363 11.0278 55.2945C9.02088 49.9721 9.82036 44.0672 12.8526 38.2129C15.9098 32.3105 21.1829 26.5886 27.8005 21.8956C34.042 17.4693 43.5611 14.4823 52.3517 14.4779Z" stroke="#798AA8" stroke-width="3.7957" stroke-dasharray="0,0,0,176.35398864746094"><animate attributeType="XML" attributeName="stroke-dasharray" repeatCount="1" dur="2.5s" values="0,0,0,176.35398864746094; 
          0,88.17699432373047,88.17699432373047,0; 
          176.35398864746094,0,0,0" keyTimes="0; 0.5; 1" fill="freeze"></animate></path>
<path d="M51.2452 21.2762C58.8607 20.1524 65.5059 21.2719 68.7796 26.0462C69.0603 26.7013 69.1499 27.9556 68.6291 29.8919C68.1026 31.849 67.0267 34.2141 65.395 36.7522C62.1348 41.8233 56.7919 47.3729 49.7375 51.5068C43.6566 55.0702 35.6819 57.4625 28.5533 57.8444C21.4126 58.2269 15.8616 56.5797 13.3915 53.0264C12.9264 51.3293 13.2191 49.3085 14.252 46.9919C15.3293 44.5756 17.1276 42.0354 19.2889 39.568C23.6096 34.6353 29.1139 30.2936 32.2337 28.2C36.11 25.5989 43.7036 22.3891 51.2452 21.2762Z" stroke="#798AA8" stroke-width="3.7957" stroke-dasharray="0,0,0,144.10447692871094"><animate attributeType="XML" attributeName="stroke-dasharray" repeatCount="1" dur="2.5s" values="0,0,0,144.10447692871094; 
          0,72.05223846435547,72.05223846435547,0; 
          144.10447692871094,0,0,0" keyTimes="0; 0.5; 1" fill="freeze"></animate></path>
</svg>