<svg width="54" height="54" viewBox="0 0 54 54" fill="none" xmlns="http://www.w3.org/2000/svg">
  <circle cx="27" cy="27" r="27" fill="#C6CACD"/>
  <path d="M36 24H35V19C35 13.5 30.5 9 25 9C19.5 9 15 13.5 15 19V24H14C11.8 24 10 25.8 10 28V42C10 44.2 11.8 46 14 46H36C38.2 46 40 44.2 40 42V28C40 25.8 38.2 24 36 24ZM25 36C22.8 36 21 34.2 21 32C21 29.8 22.8 28 25 28C27.2 28 29 29.8 29 32C29 34.2 27.2 36 25 36ZM31.6 24H18.4V19C18.4 15.4 21.4 12.4 25 12.4C28.6 12.4 31.6 15.4 31.6 19V24Z" fill="#313946"/>
</svg>